<svg width="100" height="100" viewBox="0 0 100 100" fill="none" xmlns="http://www.w3.org/2000/svg">
<rect x="19" y="59" width="14.125" height="14.125" fill="#2F3030"/>
<rect x="19" y="59" width="14.125" height="14.125" stroke="white" stroke-width="2"/>
<rect x="19" y="75" width="14.125" height="14.125" fill="#2F3030"/>
<rect x="19" y="75" width="14.125" height="14.125" stroke="white" stroke-width="2"/>
<rect x="19" y="11" width="14.125" height="14.125" fill="#2F3030"/>
<rect x="19" y="11" width="14.125" height="14.125" stroke="white" stroke-width="2"/>
<rect x="35" y="11" width="14.125" height="14.125" fill="#2F3030"/>
<rect x="35" y="11" width="14.125" height="14.125" stroke="white" stroke-width="2"/>
<rect x="19" y="27" width="14.125" height="14.125" fill="#2F3030"/>
<rect x="19" y="27" width="14.125" height="14.125" stroke="white" stroke-width="2"/>
<rect x="19" y="43" width="14.125" height="14.125" fill="#2F3030"/>
<rect x="19" y="43" width="14.125" height="14.125" stroke="white" stroke-width="2"/>
<rect x="35" y="43" width="14.125" height="14.125" fill="#2F3030"/>
<rect x="35" y="43" width="14.125" height="14.125" stroke="white" stroke-width="2"/>
<rect x="51" y="11" width="14.125" height="14.125" fill="#2F3030"/>
<rect x="51" y="11" width="14.125" height="14.125" stroke="white" stroke-width="2"/>
<rect x="67" y="27" width="14.125" height="14.125" fill="#2F3030"/>
<rect x="67" y="27" width="14.125" height="14.125" stroke="white" stroke-width="2"/>
<rect x="51" y="43" width="14.125" height="14.125" fill="#2F3030"/>
<rect x="51" y="43" width="14.125" height="14.125" stroke="white" stroke-width="2"/>
<rect x="51" y="59" width="14.125" height="14.125" fill="#2F3030"/>
<rect x="51" y="59" width="14.125" height="14.125" stroke="white" stroke-width="2"/>
<rect x="67" y="43" width="14.125" height="14.125" fill="#2F3030"/>
<rect x="67" y="43" width="14.125" height="14.125" stroke="white" stroke-width="2"/>
<rect x="67" y="75" width="14.125" height="14.125" fill="#2F3030"/>
<rect x="67" y="75" width="14.125" height="14.125" stroke="white" stroke-width="2"/>
<rect x="67" y="11" width="14.125" height="14.125" fill="#2F3030"/>
<rect x="67" y="11" width="14.125" height="14.125" stroke="white" stroke-width="2"/>
</svg>
